<mxfile host="app.diagrams.net" modified="2023-11-10T18:41:53.680Z" agent="Mozilla/5.0 (X11; Linux x86_64) AppleWebKit/537.36 (KHTML, like Gecko) Chrome/116.0.0.0 Safari/537.36" etag="LwuwrphZe21l-7InWQvN" version="22.1.0" type="github">
  <diagram name="Página-1" id="GWnw-stzMg_zgi96cSFB">
    <mxGraphModel dx="954" dy="564" grid="1" gridSize="10" guides="1" tooltips="1" connect="1" arrows="1" fold="1" page="1" pageScale="1" pageWidth="827" pageHeight="1169" math="0" shadow="0">
      <root>
        <mxCell id="0" />
        <mxCell id="1" parent="0" />
        <mxCell id="xAnBN4XjRfQJHjXndQy3-1" value="Gerir venda de ingresso&amp;nbsp;" style="shape=module;align=left;spacingLeft=20;align=center;verticalAlign=top;whiteSpace=wrap;html=1;" vertex="1" parent="1">
          <mxGeometry x="180" y="350" width="100" height="50" as="geometry" />
        </mxCell>
        <mxCell id="xAnBN4XjRfQJHjXndQy3-2" value="SGBD" style="shape=module;align=left;spacingLeft=20;align=center;verticalAlign=top;whiteSpace=wrap;html=1;" vertex="1" parent="1">
          <mxGeometry x="330" y="460" width="100" height="50" as="geometry" />
        </mxCell>
        <mxCell id="xAnBN4XjRfQJHjXndQy3-4" value="Manutenção do sistema" style="shape=module;align=left;spacingLeft=20;align=center;verticalAlign=top;whiteSpace=wrap;html=1;" vertex="1" parent="1">
          <mxGeometry x="490" y="330" width="100" height="50" as="geometry" />
        </mxCell>
        <mxCell id="xAnBN4XjRfQJHjXndQy3-8" value="" style="rounded=0;orthogonalLoop=1;jettySize=auto;html=1;endArrow=halfCircle;endFill=0;endSize=6;strokeWidth=1;sketch=0;exitX=1;exitY=0.5;exitDx=0;exitDy=0;" edge="1" target="xAnBN4XjRfQJHjXndQy3-10" parent="1" source="xAnBN4XjRfQJHjXndQy3-1">
          <mxGeometry relative="1" as="geometry">
            <mxPoint x="280" y="370" as="sourcePoint" />
          </mxGeometry>
        </mxCell>
        <mxCell id="xAnBN4XjRfQJHjXndQy3-9" value="" style="rounded=0;orthogonalLoop=1;jettySize=auto;html=1;endArrow=oval;endFill=0;sketch=0;sourcePerimeterSpacing=0;targetPerimeterSpacing=0;endSize=10;exitX=0.35;exitY=-0.02;exitDx=0;exitDy=0;exitPerimeter=0;" edge="1" target="xAnBN4XjRfQJHjXndQy3-10" parent="1" source="xAnBN4XjRfQJHjXndQy3-2">
          <mxGeometry relative="1" as="geometry">
            <mxPoint x="300" y="370" as="sourcePoint" />
          </mxGeometry>
        </mxCell>
        <mxCell id="xAnBN4XjRfQJHjXndQy3-10" value="" style="ellipse;whiteSpace=wrap;html=1;align=center;aspect=fixed;fillColor=none;strokeColor=none;resizable=0;perimeter=centerPerimeter;rotatable=0;allowArrows=0;points=[];outlineConnect=1;" vertex="1" parent="1">
          <mxGeometry x="360" y="370" width="10" height="10" as="geometry" />
        </mxCell>
        <mxCell id="xAnBN4XjRfQJHjXndQy3-11" value="" style="rounded=0;orthogonalLoop=1;jettySize=auto;html=1;endArrow=halfCircle;endFill=0;endSize=6;strokeWidth=1;sketch=0;exitX=1;exitY=0.5;exitDx=0;exitDy=0;" edge="1" target="xAnBN4XjRfQJHjXndQy3-13" parent="1" source="xAnBN4XjRfQJHjXndQy3-2">
          <mxGeometry relative="1" as="geometry">
            <mxPoint x="580" y="485" as="sourcePoint" />
          </mxGeometry>
        </mxCell>
        <mxCell id="xAnBN4XjRfQJHjXndQy3-12" value="" style="rounded=0;orthogonalLoop=1;jettySize=auto;html=1;endArrow=oval;endFill=0;sketch=0;sourcePerimeterSpacing=0;targetPerimeterSpacing=0;endSize=10;exitX=0.4;exitY=1.06;exitDx=0;exitDy=0;exitPerimeter=0;" edge="1" target="xAnBN4XjRfQJHjXndQy3-13" parent="1" source="xAnBN4XjRfQJHjXndQy3-4">
          <mxGeometry relative="1" as="geometry">
            <mxPoint x="460" y="485" as="sourcePoint" />
          </mxGeometry>
        </mxCell>
        <mxCell id="xAnBN4XjRfQJHjXndQy3-13" value="" style="ellipse;whiteSpace=wrap;html=1;align=center;aspect=fixed;fillColor=none;strokeColor=none;resizable=0;perimeter=centerPerimeter;rotatable=0;allowArrows=0;points=[];outlineConnect=1;" vertex="1" parent="1">
          <mxGeometry x="520" y="480" width="10" height="10" as="geometry" />
        </mxCell>
        <mxCell id="xAnBN4XjRfQJHjXndQy3-19" value="" style="ellipse;whiteSpace=wrap;html=1;align=center;aspect=fixed;fillColor=none;strokeColor=none;resizable=0;perimeter=centerPerimeter;rotatable=0;allowArrows=0;points=[];outlineConnect=1;" vertex="1" parent="1">
          <mxGeometry x="405" y="450" width="10" height="10" as="geometry" />
        </mxCell>
        <mxCell id="xAnBN4XjRfQJHjXndQy3-20" value="Interface de venda de ingressos" style="shape=module;align=left;spacingLeft=20;align=center;verticalAlign=top;whiteSpace=wrap;html=1;" vertex="1" parent="1">
          <mxGeometry x="170" y="210" width="100" height="50" as="geometry" />
        </mxCell>
        <mxCell id="xAnBN4XjRfQJHjXndQy3-22" value="" style="rounded=0;orthogonalLoop=1;jettySize=auto;html=1;endArrow=halfCircle;endFill=0;endSize=6;strokeWidth=1;sketch=0;exitX=0.59;exitY=0.98;exitDx=0;exitDy=0;exitPerimeter=0;" edge="1" target="xAnBN4XjRfQJHjXndQy3-24" parent="1" source="xAnBN4XjRfQJHjXndQy3-20">
          <mxGeometry relative="1" as="geometry">
            <mxPoint x="250" y="325" as="sourcePoint" />
          </mxGeometry>
        </mxCell>
        <mxCell id="xAnBN4XjRfQJHjXndQy3-23" value="" style="rounded=0;orthogonalLoop=1;jettySize=auto;html=1;endArrow=oval;endFill=0;sketch=0;sourcePerimeterSpacing=0;targetPerimeterSpacing=0;endSize=10;exitX=0.5;exitY=0;exitDx=0;exitDy=0;" edge="1" target="xAnBN4XjRfQJHjXndQy3-24" parent="1" source="xAnBN4XjRfQJHjXndQy3-1">
          <mxGeometry relative="1" as="geometry">
            <mxPoint x="210" y="325" as="sourcePoint" />
          </mxGeometry>
        </mxCell>
        <mxCell id="xAnBN4XjRfQJHjXndQy3-24" value="" style="ellipse;whiteSpace=wrap;html=1;align=center;aspect=fixed;fillColor=none;strokeColor=none;resizable=0;perimeter=centerPerimeter;rotatable=0;allowArrows=0;points=[];outlineConnect=1;" vertex="1" parent="1">
          <mxGeometry x="225" y="320" width="10" height="10" as="geometry" />
        </mxCell>
        <mxCell id="xAnBN4XjRfQJHjXndQy3-25" value="sistema de controle de cinema" style="text;whiteSpace=wrap;fontStyle=1" vertex="1" parent="1">
          <mxGeometry x="65" y="130" width="195" height="30" as="geometry" />
        </mxCell>
        <mxCell id="xAnBN4XjRfQJHjXndQy3-26" value="SGBD" style="shape=module;align=left;spacingLeft=20;align=center;verticalAlign=top;whiteSpace=wrap;html=1;" vertex="1" parent="1">
          <mxGeometry x="230" y="770" width="100" height="50" as="geometry" />
        </mxCell>
        <mxCell id="xAnBN4XjRfQJHjXndQy3-27" value="Emissão e quitação de mensalidades" style="shape=module;align=left;spacingLeft=20;align=center;verticalAlign=top;whiteSpace=wrap;html=1;" vertex="1" parent="1">
          <mxGeometry x="490" y="760" width="120" height="60" as="geometry" />
        </mxCell>
        <mxCell id="xAnBN4XjRfQJHjXndQy3-28" value="Manter cadastros" style="shape=module;align=left;spacingLeft=20;align=center;verticalAlign=top;whiteSpace=wrap;html=1;" vertex="1" parent="1">
          <mxGeometry x="340" y="660" width="100" height="50" as="geometry" />
        </mxCell>
        <mxCell id="xAnBN4XjRfQJHjXndQy3-30" value="" style="rounded=0;orthogonalLoop=1;jettySize=auto;html=1;endArrow=halfCircle;endFill=0;endSize=6;strokeWidth=1;sketch=0;exitX=0.3;exitY=1;exitDx=0;exitDy=0;exitPerimeter=0;" edge="1" parent="1" source="xAnBN4XjRfQJHjXndQy3-28">
          <mxGeometry relative="1" as="geometry">
            <mxPoint x="280" y="705" as="sourcePoint" />
            <mxPoint x="370" y="740" as="targetPoint" />
          </mxGeometry>
        </mxCell>
        <mxCell id="xAnBN4XjRfQJHjXndQy3-31" value="" style="rounded=0;orthogonalLoop=1;jettySize=auto;html=1;endArrow=oval;endFill=0;sketch=0;sourcePerimeterSpacing=0;targetPerimeterSpacing=0;endSize=10;exitX=1;exitY=0.5;exitDx=0;exitDy=0;" edge="1" parent="1" source="xAnBN4XjRfQJHjXndQy3-26">
          <mxGeometry relative="1" as="geometry">
            <mxPoint x="240" y="705" as="sourcePoint" />
            <mxPoint x="370" y="740" as="targetPoint" />
            <Array as="points">
              <mxPoint x="370" y="795" />
            </Array>
          </mxGeometry>
        </mxCell>
        <mxCell id="xAnBN4XjRfQJHjXndQy3-32" value="" style="ellipse;whiteSpace=wrap;html=1;align=center;aspect=fixed;fillColor=none;strokeColor=none;resizable=0;perimeter=centerPerimeter;rotatable=0;allowArrows=0;points=[];outlineConnect=1;" vertex="1" parent="1">
          <mxGeometry x="255" y="700" width="10" height="10" as="geometry" />
        </mxCell>
        <mxCell id="xAnBN4XjRfQJHjXndQy3-33" value="" style="rounded=0;orthogonalLoop=1;jettySize=auto;html=1;endArrow=halfCircle;endFill=0;endSize=6;strokeWidth=1;sketch=0;exitX=0.5;exitY=1;exitDx=0;exitDy=0;entryX=1.1;entryY=-0.4;entryDx=0;entryDy=0;entryPerimeter=0;" edge="1" target="xAnBN4XjRfQJHjXndQy3-35" parent="1" source="xAnBN4XjRfQJHjXndQy3-27">
          <mxGeometry relative="1" as="geometry">
            <mxPoint x="445" y="815" as="sourcePoint" />
            <Array as="points">
              <mxPoint x="550" y="845" />
            </Array>
          </mxGeometry>
        </mxCell>
        <mxCell id="xAnBN4XjRfQJHjXndQy3-34" value="" style="rounded=0;orthogonalLoop=1;jettySize=auto;html=1;endArrow=oval;endFill=0;sketch=0;sourcePerimeterSpacing=0;targetPerimeterSpacing=0;endSize=10;exitX=0.75;exitY=1;exitDx=0;exitDy=0;" edge="1" target="xAnBN4XjRfQJHjXndQy3-35" parent="1" source="xAnBN4XjRfQJHjXndQy3-26">
          <mxGeometry relative="1" as="geometry">
            <mxPoint x="405" y="815" as="sourcePoint" />
            <Array as="points">
              <mxPoint x="305" y="840" />
            </Array>
          </mxGeometry>
        </mxCell>
        <mxCell id="xAnBN4XjRfQJHjXndQy3-35" value="" style="ellipse;whiteSpace=wrap;html=1;align=center;aspect=fixed;fillColor=none;strokeColor=none;resizable=0;perimeter=centerPerimeter;rotatable=0;allowArrows=0;points=[];outlineConnect=1;" vertex="1" parent="1">
          <mxGeometry x="420" y="840" width="10" height="10" as="geometry" />
        </mxCell>
        <mxCell id="xAnBN4XjRfQJHjXndQy3-39" value="sistema&amp;nbsp; de controle de clube social" style="text;align=center;fontStyle=1;verticalAlign=middle;spacingLeft=3;spacingRight=3;strokeColor=none;rotatable=0;points=[[0,0.5],[1,0.5]];portConstraint=eastwest;html=1;" vertex="1" parent="1">
          <mxGeometry x="60" y="610" width="220" height="40" as="geometry" />
        </mxCell>
        <mxCell id="xAnBN4XjRfQJHjXndQy3-40" value="Manutenção de cadastros" style="shape=module;align=left;spacingLeft=20;align=center;verticalAlign=top;whiteSpace=wrap;html=1;" vertex="1" parent="1">
          <mxGeometry x="305" y="1080" width="100" height="50" as="geometry" />
        </mxCell>
        <mxCell id="xAnBN4XjRfQJHjXndQy3-41" value="SGBD" style="shape=module;align=left;spacingLeft=20;align=center;verticalAlign=top;whiteSpace=wrap;html=1;" vertex="1" parent="1">
          <mxGeometry x="530" y="1080" width="100" height="50" as="geometry" />
        </mxCell>
        <mxCell id="xAnBN4XjRfQJHjXndQy3-42" value="Manutenção das locações" style="shape=module;align=left;spacingLeft=20;align=center;verticalAlign=top;whiteSpace=wrap;html=1;" vertex="1" parent="1">
          <mxGeometry x="420" y="1200" width="100" height="50" as="geometry" />
        </mxCell>
        <mxCell id="xAnBN4XjRfQJHjXndQy3-44" value="" style="rounded=0;orthogonalLoop=1;jettySize=auto;html=1;endArrow=halfCircle;endFill=0;endSize=6;strokeWidth=1;sketch=0;exitX=0.95;exitY=0.6;exitDx=0;exitDy=0;exitPerimeter=0;" edge="1" parent="1" source="xAnBN4XjRfQJHjXndQy3-40">
          <mxGeometry relative="1" as="geometry">
            <mxPoint x="420" y="1110" as="sourcePoint" />
            <mxPoint x="450" y="1110" as="targetPoint" />
            <Array as="points">
              <mxPoint x="430" y="1110" />
            </Array>
          </mxGeometry>
        </mxCell>
        <mxCell id="xAnBN4XjRfQJHjXndQy3-45" value="" style="rounded=0;orthogonalLoop=1;jettySize=auto;html=1;endArrow=oval;endFill=0;sketch=0;sourcePerimeterSpacing=0;targetPerimeterSpacing=0;endSize=10;exitX=0.12;exitY=0.66;exitDx=0;exitDy=0;exitPerimeter=0;" edge="1" parent="1" source="xAnBN4XjRfQJHjXndQy3-41">
          <mxGeometry relative="1" as="geometry">
            <mxPoint x="540" y="1130" as="sourcePoint" />
            <mxPoint x="450" y="1110" as="targetPoint" />
            <Array as="points" />
          </mxGeometry>
        </mxCell>
        <mxCell id="xAnBN4XjRfQJHjXndQy3-46" value="" style="ellipse;whiteSpace=wrap;html=1;align=center;aspect=fixed;fillColor=none;strokeColor=none;resizable=0;perimeter=centerPerimeter;rotatable=0;allowArrows=0;points=[];outlineConnect=1;" vertex="1" parent="1">
          <mxGeometry x="335" y="1180" width="10" height="10" as="geometry" />
        </mxCell>
        <mxCell id="xAnBN4XjRfQJHjXndQy3-49" value="" style="rounded=0;orthogonalLoop=1;jettySize=auto;html=1;endArrow=halfCircle;endFill=0;endSize=6;strokeWidth=1;sketch=0;exitX=1;exitY=0.5;exitDx=0;exitDy=0;" edge="1" parent="1" source="xAnBN4XjRfQJHjXndQy3-42">
          <mxGeometry relative="1" as="geometry">
            <mxPoint x="580" y="1180" as="sourcePoint" />
            <mxPoint x="580" y="1180" as="targetPoint" />
            <Array as="points">
              <mxPoint x="560" y="1225" />
              <mxPoint x="580" y="1225" />
            </Array>
          </mxGeometry>
        </mxCell>
        <mxCell id="xAnBN4XjRfQJHjXndQy3-50" value="" style="rounded=0;orthogonalLoop=1;jettySize=auto;html=1;endArrow=oval;endFill=0;sketch=0;sourcePerimeterSpacing=0;targetPerimeterSpacing=0;endSize=10;exitX=0.5;exitY=1;exitDx=0;exitDy=0;" edge="1" parent="1" source="xAnBN4XjRfQJHjXndQy3-41">
          <mxGeometry relative="1" as="geometry">
            <mxPoint x="360" y="1185" as="sourcePoint" />
            <mxPoint x="580" y="1180" as="targetPoint" />
          </mxGeometry>
        </mxCell>
        <mxCell id="xAnBN4XjRfQJHjXndQy3-51" value="" style="ellipse;whiteSpace=wrap;html=1;align=center;aspect=fixed;fillColor=none;strokeColor=none;resizable=0;perimeter=centerPerimeter;rotatable=0;allowArrows=0;points=[];outlineConnect=1;" vertex="1" parent="1">
          <mxGeometry x="375" y="1180" width="10" height="10" as="geometry" />
        </mxCell>
        <mxCell id="xAnBN4XjRfQJHjXndQy3-55" value="sistema de locação de veículos" style="text;align=center;fontStyle=1;verticalAlign=middle;spacingLeft=3;spacingRight=3;strokeColor=none;rotatable=0;points=[[0,0.5],[1,0.5]];portConstraint=eastwest;html=1;" vertex="1" parent="1">
          <mxGeometry x="15" y="1020" width="255" height="40" as="geometry" />
        </mxCell>
        <mxCell id="xAnBN4XjRfQJHjXndQy3-56" value="Manutenção de cadastros" style="shape=module;align=left;spacingLeft=20;align=center;verticalAlign=top;whiteSpace=wrap;html=1;" vertex="1" parent="1">
          <mxGeometry x="180" y="1520" width="100" height="50" as="geometry" />
        </mxCell>
        <mxCell id="xAnBN4XjRfQJHjXndQy3-57" value="sistema de controle de hotelaria" style="text;align=center;fontStyle=1;verticalAlign=middle;spacingLeft=3;spacingRight=3;strokeColor=none;rotatable=0;points=[[0,0.5],[1,0.5]];portConstraint=eastwest;html=1;" vertex="1" parent="1">
          <mxGeometry x="65" y="1270" width="225" height="40" as="geometry" />
        </mxCell>
        <mxCell id="xAnBN4XjRfQJHjXndQy3-58" value="modulo de reservas" style="shape=module;align=left;spacingLeft=20;align=center;verticalAlign=top;whiteSpace=wrap;html=1;" vertex="1" parent="1">
          <mxGeometry x="560" y="1520" width="100" height="50" as="geometry" />
        </mxCell>
        <mxCell id="xAnBN4XjRfQJHjXndQy3-59" value="Modulo de aluguéis" style="shape=module;align=left;spacingLeft=20;align=center;verticalAlign=top;whiteSpace=wrap;html=1;" vertex="1" parent="1">
          <mxGeometry x="360" y="1400" width="100" height="50" as="geometry" />
        </mxCell>
        <mxCell id="xAnBN4XjRfQJHjXndQy3-60" value="SGBD" style="shape=module;align=left;spacingLeft=20;align=center;verticalAlign=top;whiteSpace=wrap;html=1;" vertex="1" parent="1">
          <mxGeometry x="370" y="1520" width="100" height="50" as="geometry" />
        </mxCell>
        <mxCell id="xAnBN4XjRfQJHjXndQy3-70" value="" style="rounded=0;orthogonalLoop=1;jettySize=auto;html=1;endArrow=halfCircle;endFill=0;endSize=6;strokeWidth=1;sketch=0;exitX=1;exitY=0.5;exitDx=0;exitDy=0;" edge="1" target="xAnBN4XjRfQJHjXndQy3-72" parent="1" source="xAnBN4XjRfQJHjXndQy3-56">
          <mxGeometry relative="1" as="geometry">
            <mxPoint x="345" y="1545" as="sourcePoint" />
          </mxGeometry>
        </mxCell>
        <mxCell id="xAnBN4XjRfQJHjXndQy3-71" value="" style="rounded=0;orthogonalLoop=1;jettySize=auto;html=1;endArrow=oval;endFill=0;sketch=0;sourcePerimeterSpacing=0;targetPerimeterSpacing=0;endSize=10;" edge="1" target="xAnBN4XjRfQJHjXndQy3-72" parent="1" source="xAnBN4XjRfQJHjXndQy3-60">
          <mxGeometry relative="1" as="geometry">
            <mxPoint x="305" y="1545" as="sourcePoint" />
          </mxGeometry>
        </mxCell>
        <mxCell id="xAnBN4XjRfQJHjXndQy3-72" value="" style="ellipse;whiteSpace=wrap;html=1;align=center;aspect=fixed;fillColor=none;strokeColor=none;resizable=0;perimeter=centerPerimeter;rotatable=0;allowArrows=0;points=[];outlineConnect=1;" vertex="1" parent="1">
          <mxGeometry x="320" y="1540" width="10" height="10" as="geometry" />
        </mxCell>
        <mxCell id="xAnBN4XjRfQJHjXndQy3-73" value="modulo de consumos" style="shape=module;align=left;spacingLeft=20;align=center;verticalAlign=top;whiteSpace=wrap;html=1;" vertex="1" parent="1">
          <mxGeometry x="560" y="1400" width="100" height="50" as="geometry" />
        </mxCell>
        <mxCell id="xAnBN4XjRfQJHjXndQy3-74" value="Modulo de serviços" style="shape=module;align=left;spacingLeft=20;align=center;verticalAlign=top;whiteSpace=wrap;html=1;" vertex="1" parent="1">
          <mxGeometry x="360" y="1300" width="100" height="50" as="geometry" />
        </mxCell>
        <mxCell id="xAnBN4XjRfQJHjXndQy3-81" value="" style="rounded=0;orthogonalLoop=1;jettySize=auto;html=1;endArrow=halfCircle;endFill=0;endSize=6;strokeWidth=1;sketch=0;exitX=0.11;exitY=0.48;exitDx=0;exitDy=0;exitPerimeter=0;" edge="1" target="xAnBN4XjRfQJHjXndQy3-83" parent="1" source="xAnBN4XjRfQJHjXndQy3-58">
          <mxGeometry relative="1" as="geometry">
            <mxPoint x="590" y="1540" as="sourcePoint" />
          </mxGeometry>
        </mxCell>
        <mxCell id="xAnBN4XjRfQJHjXndQy3-82" value="" style="rounded=0;orthogonalLoop=1;jettySize=auto;html=1;endArrow=oval;endFill=0;sketch=0;sourcePerimeterSpacing=0;targetPerimeterSpacing=0;endSize=10;" edge="1" target="xAnBN4XjRfQJHjXndQy3-83" parent="1" source="xAnBN4XjRfQJHjXndQy3-60">
          <mxGeometry relative="1" as="geometry">
            <mxPoint x="480" y="1535" as="sourcePoint" />
          </mxGeometry>
        </mxCell>
        <mxCell id="xAnBN4XjRfQJHjXndQy3-83" value="" style="ellipse;whiteSpace=wrap;html=1;align=center;aspect=fixed;fillColor=none;strokeColor=none;resizable=0;perimeter=centerPerimeter;rotatable=0;allowArrows=0;points=[];outlineConnect=1;" vertex="1" parent="1">
          <mxGeometry x="500" y="1540" width="10" height="10" as="geometry" />
        </mxCell>
        <mxCell id="xAnBN4XjRfQJHjXndQy3-90" value="" style="rounded=0;orthogonalLoop=1;jettySize=auto;html=1;endArrow=halfCircle;endFill=0;endSize=6;strokeWidth=1;sketch=0;exitX=0.61;exitY=1.04;exitDx=0;exitDy=0;exitPerimeter=0;" edge="1" target="xAnBN4XjRfQJHjXndQy3-92" parent="1" source="xAnBN4XjRfQJHjXndQy3-59">
          <mxGeometry relative="1" as="geometry">
            <mxPoint x="440" y="1495" as="sourcePoint" />
          </mxGeometry>
        </mxCell>
        <mxCell id="xAnBN4XjRfQJHjXndQy3-91" value="" style="rounded=0;orthogonalLoop=1;jettySize=auto;html=1;endArrow=oval;endFill=0;sketch=0;sourcePerimeterSpacing=0;targetPerimeterSpacing=0;endSize=10;" edge="1" target="xAnBN4XjRfQJHjXndQy3-92" parent="1" source="xAnBN4XjRfQJHjXndQy3-60">
          <mxGeometry relative="1" as="geometry">
            <mxPoint x="400" y="1495" as="sourcePoint" />
          </mxGeometry>
        </mxCell>
        <mxCell id="xAnBN4XjRfQJHjXndQy3-92" value="" style="ellipse;whiteSpace=wrap;html=1;align=center;aspect=fixed;fillColor=none;strokeColor=none;resizable=0;perimeter=centerPerimeter;rotatable=0;allowArrows=0;points=[];outlineConnect=1;" vertex="1" parent="1">
          <mxGeometry x="415" y="1490" width="10" height="10" as="geometry" />
        </mxCell>
        <mxCell id="xAnBN4XjRfQJHjXndQy3-93" value="" style="rounded=0;orthogonalLoop=1;jettySize=auto;html=1;endArrow=halfCircle;endFill=0;endSize=6;strokeWidth=1;sketch=0;exitX=0.08;exitY=0.5;exitDx=0;exitDy=0;exitPerimeter=0;" edge="1" target="xAnBN4XjRfQJHjXndQy3-95" parent="1" source="xAnBN4XjRfQJHjXndQy3-73">
          <mxGeometry relative="1" as="geometry">
            <mxPoint x="540" y="1425" as="sourcePoint" />
          </mxGeometry>
        </mxCell>
        <mxCell id="xAnBN4XjRfQJHjXndQy3-94" value="" style="rounded=0;orthogonalLoop=1;jettySize=auto;html=1;endArrow=oval;endFill=0;sketch=0;sourcePerimeterSpacing=0;targetPerimeterSpacing=0;endSize=10;exitX=1;exitY=0.5;exitDx=0;exitDy=0;" edge="1" target="xAnBN4XjRfQJHjXndQy3-95" parent="1" source="xAnBN4XjRfQJHjXndQy3-59">
          <mxGeometry relative="1" as="geometry">
            <mxPoint x="500" y="1425" as="sourcePoint" />
          </mxGeometry>
        </mxCell>
        <mxCell id="xAnBN4XjRfQJHjXndQy3-95" value="" style="ellipse;whiteSpace=wrap;html=1;align=center;aspect=fixed;fillColor=none;strokeColor=none;resizable=0;perimeter=centerPerimeter;rotatable=0;allowArrows=0;points=[];outlineConnect=1;" vertex="1" parent="1">
          <mxGeometry x="515" y="1420" width="10" height="10" as="geometry" />
        </mxCell>
        <mxCell id="xAnBN4XjRfQJHjXndQy3-97" value="" style="rounded=0;orthogonalLoop=1;jettySize=auto;html=1;endArrow=halfCircle;endFill=0;endSize=6;strokeWidth=1;sketch=0;exitX=0.6;exitY=1.06;exitDx=0;exitDy=0;exitPerimeter=0;" edge="1" target="xAnBN4XjRfQJHjXndQy3-99" parent="1" source="xAnBN4XjRfQJHjXndQy3-74">
          <mxGeometry relative="1" as="geometry">
            <mxPoint x="440" y="1380" as="sourcePoint" />
          </mxGeometry>
        </mxCell>
        <mxCell id="xAnBN4XjRfQJHjXndQy3-98" value="" style="rounded=0;orthogonalLoop=1;jettySize=auto;html=1;endArrow=oval;endFill=0;sketch=0;sourcePerimeterSpacing=0;targetPerimeterSpacing=0;endSize=10;exitX=0.61;exitY=0.04;exitDx=0;exitDy=0;exitPerimeter=0;" edge="1" target="xAnBN4XjRfQJHjXndQy3-99" parent="1" source="xAnBN4XjRfQJHjXndQy3-59">
          <mxGeometry relative="1" as="geometry">
            <mxPoint x="400" y="1380" as="sourcePoint" />
            <Array as="points">
              <mxPoint x="421" y="1390" />
            </Array>
          </mxGeometry>
        </mxCell>
        <mxCell id="xAnBN4XjRfQJHjXndQy3-99" value="" style="ellipse;whiteSpace=wrap;html=1;align=center;aspect=fixed;fillColor=none;strokeColor=none;resizable=0;perimeter=centerPerimeter;rotatable=0;allowArrows=0;points=[];outlineConnect=1;" vertex="1" parent="1">
          <mxGeometry x="415" y="1375" width="10" height="10" as="geometry" />
        </mxCell>
        <mxCell id="xAnBN4XjRfQJHjXndQy3-106" value="" style="endArrow=none;html=1;rounded=0;" edge="1" parent="1">
          <mxGeometry width="50" height="50" relative="1" as="geometry">
            <mxPoint x="100" y="1640" as="sourcePoint" />
            <mxPoint x="790" y="1640" as="targetPoint" />
          </mxGeometry>
        </mxCell>
      </root>
    </mxGraphModel>
  </diagram>
</mxfile>
